# xmcd
#
# Track frame offsets: 
#        150
#        12753
#        26683
#        40741
#        51472
#        67979
#        80889
#        94802
#
# Disc length: 1448 seconds
#
# Revision: 0
# Processed by: cddbd v1.5.2PL0 Copyright (c) Steve Scherf et al.
# Submitted via: ExactAudioCopy v0.95a4
#
DISCID=6305a608
DTITLE=Chad Burdick - Whiskey in the River Acoustic EP
DYEAR=2009
DGENRE=Country
TTITLE0=Whiskey in the River
TTITLE1=Take Another Run
TTITLE2=She'll Go on You
TTITLE3=Kissed Another Woman
TTITLE4=Daddy's Songs
TTITLE5=Never Make It [Bonus Track]
TTITLE6=Without You [Bonus Track]
TTITLE7=Take Another Run [Alternate Version]
EXTD=
EXTT0=
EXTT1=
EXTT2=
EXTT3=
EXTT4=
EXTT5=
EXTT6=
EXTT7=
PLAYORDER=
